<svg width="160" height="160" viewBox="0 0 160 160" fill="none" xmlns="http://www.w3.org/2000/svg">
<path d="M111.667 73.3334C111.667 76.0948 109.428 78.3334 106.667 78.3334H53.3334C50.5719 78.3334 48.3334 76.0948 48.3334 73.3334C48.3334 70.5719 50.5719 68.3334 53.3334 68.3334H106.667C109.428 68.3334 111.667 70.5719 111.667 73.3334Z" fill="white"/>
<path fill-rule="evenodd" clip-rule="evenodd" d="M29.2372 54.3113L37.1621 32.6607C39.1593 27.2044 44.0032 23.2946 49.7581 22.4938C69.8228 19.7015 90.1777 19.7015 110.242 22.4938C115.997 23.2946 120.841 27.2045 122.838 32.6608L130.764 54.3134C132.246 56.6259 133.267 59.2695 133.696 62.1193L134.375 66.6383C137.04 84.3625 136.791 102.403 133.637 120.047C132.239 127.869 125.816 133.81 117.908 134.595L109.705 135.409C89.9502 137.37 70.0495 137.37 50.2945 135.409L42.0914 134.595C34.1842 133.81 27.7605 127.869 26.3623 120.047C23.2085 102.403 22.9593 84.3625 25.6246 66.6383L26.3041 62.1193C26.7328 59.2686 27.7543 56.6244 29.2372 54.3113ZM51.1364 32.3983C70.2867 29.7334 89.7138 29.7334 108.864 32.3983C110.958 32.6897 112.721 34.1125 113.448 36.0981L116.822 45.3179C116.52 45.2739 116.216 45.2366 115.909 45.2062L109.388 44.5589C89.8438 42.6191 70.1559 42.6191 50.6119 44.5589L44.0907 45.2062C43.7844 45.2366 43.4801 45.2738 43.178 45.3178L46.5528 36.098C47.2795 34.1125 49.0422 32.6897 51.1364 32.3983ZM37.9044 59.3399L38.0288 59.3854L38.1831 58.9638C39.8214 56.858 42.2822 55.4348 45.0783 55.1573L51.5996 54.51C70.4867 52.6354 89.513 52.6354 108.4 54.51L114.921 55.1573C117.718 55.4349 120.179 56.8586 121.818 58.9651L121.971 59.3854L122.095 59.34C122.97 60.5793 123.57 62.0296 123.807 63.6064L124.486 68.1253C126.99 84.7721 126.756 101.716 123.793 118.287C123.183 121.705 120.376 124.301 116.921 124.644L108.718 125.458C89.6193 127.354 70.3804 127.354 51.2822 125.458L43.0791 124.644C39.624 124.301 36.8172 121.705 36.2063 118.287C33.2442 101.716 33.0101 84.7721 35.5134 68.1253L36.193 63.6064C36.4301 62.0296 37.0302 60.5792 37.9044 59.3399Z" fill="white"/>
</svg>
